<?xml version="1.0" encoding="UTF-8"?>
<svg width="304px" height="152px" viewBox="0 0 304 152" version="1.1" xmlns="http://www.w3.org/2000/svg" xmlns:xlink="http://www.w3.org/1999/xlink">
    <!-- Generator: Sketch 64 (93537) - https://sketch.com -->
    <title>Star</title>
    <desc>Created with Sketch.</desc>
    <g id="PRESENTATION" stroke="none" stroke-width="1" fill="none" fill-rule="evenodd">
        <g id="iPhone-8" transform="translate(-36.000000, -258.000000)" fill="#E2DBCE">
            <polygon id="Star" points="188 375.664872 174.374825 409.694046 173.1209 374.9953 147.562399 407.261177 158.720026 373.008106 122.049672 402.473634 145.260235 369.767159 98.6566417 395.485292 133.174134 365.376626 78.1351807 386.520761 122.850183 359.977623 61.1448654 375.868171 114.6202 353.743677 48.2317786 363.869902 108.748704 346.875154 39.8109573 350.911591 105.42441 339.592812 36.1530539 337.409727 104.754164 332.130713 37.3756362 323.798272 106.759507 324.728694 43.4394095 310.514708 111.375986 317.624662 54.1494792 297.985982 118.455224 311.046948 69.1616147 286.614775 127.769689 305.206963 87.9933137 276.766569 139.020005 300.29241 110.03931 268.757892 151.844579 296.461247 134.591027 262.84615 165.831218 293.836611 160.859352 259.221351 180.530379 292.502859 188 258 195.469621 292.502859 215.140648 259.221351 210.168782 293.836611 241.408973 262.84615 224.155421 296.461247 265.96069 268.757892 236.979995 300.29241 288.006686 276.766569 248.230311 305.206963 306.838385 286.614775 257.544776 311.046948 321.850521 297.985982 264.624014 317.624662 332.56059 310.514708 269.240493 324.728694 338.624364 323.798272 271.245836 332.130713 339.846946 337.409727 270.57559 339.592812 336.189043 350.911591 267.251296 346.875154 327.768221 363.869902 261.3798 353.743677 314.855135 375.868171 253.149817 359.977623 297.864819 386.520761 242.825866 365.376626 277.343358 395.485292 230.739765 369.767159 253.950328 402.473634 217.279974 373.008106 228.437601 407.261177 202.8791 374.9953 201.625175 409.694046"></polygon>
        </g>
    </g>
</svg>