<?xml version="1.0" encoding="UTF-8"?>
<svg width="304px" height="152px" viewBox="0 0 304 152" version="1.1" xmlns="http://www.w3.org/2000/svg" xmlns:xlink="http://www.w3.org/1999/xlink">
    <!-- Generator: Sketch 64 (93537) - https://sketch.com -->
    <title>Star</title>
    <desc>Created with Sketch.</desc>
    <g id="PRESENTATION" stroke="none" stroke-width="1" fill="none" fill-rule="evenodd">
        <g id="iPhone-8" transform="translate(-36.000000, -257.000000)" fill="#AB785B">
            <g id="eye" transform="translate(36.000000, 257.000000)">
                <polygon id="Star" points="152 117.664872 138.374825 151.694046 137.1209 116.9953 111.562399 149.261177 122.720026 115.008106 86.0496717 144.473634 109.260235 111.767159 62.6566417 137.485292 97.1741344 107.376626 42.1351807 128.520761 86.8501827 101.977623 25.1448654 117.868171 78.6201998 95.7436772 12.2317786 105.869902 72.748704 88.8751535 3.81095735 92.911591 69.42441 81.5928118 0.153053886 79.4097271 68.7541635 74.1307126 1.37563621 65.7982718 70.7595067 66.7286938 7.43940952 52.5147084 75.3759861 59.6246624 18.1494792 39.9859817 82.4552244 53.0469478 33.1616147 28.6147751 91.769689 47.2069632 51.9933137 18.7665686 103.020005 42.2924105 74.0393098 10.7578917 115.844579 38.4612474 98.5910267 4.84614983 129.831218 35.8366108 124.859352 1.22135127 144.530379 34.5028585 152 0 159.469621 34.5028585 179.140648 1.22135127 174.168782 35.8366108 205.408973 4.84614983 188.155421 38.4612474 229.96069 10.7578917 200.979995 42.2924105 252.006686 18.7665686 212.230311 47.2069632 270.838385 28.6147751 221.544776 53.0469478 285.850521 39.9859817 228.624014 59.6246624 296.56059 52.5147084 233.240493 66.7286938 302.624364 65.7982718 235.245836 74.1307126 303.846946 79.4097271 234.57559 81.5928118 300.189043 92.911591 231.251296 88.8751535 291.768221 105.869902 225.3798 95.7436772 278.855135 117.868171 217.149817 101.977623 261.864819 128.520761 206.825866 107.376626 241.343358 137.485292 194.739765 111.767159 217.950328 144.473634 181.279974 115.008106 192.437601 149.261177 166.8791 116.9953 165.625175 151.694046"></polygon>
            </g>
        </g>
    </g>
</svg>