<?xml version="1.0" standalone="no"?>
<!DOCTYPE svg PUBLIC "-//W3C//DTD SVG 20010904//EN"
 "http://www.w3.org/TR/2001/REC-SVG-20010904/DTD/svg10.dtd">
<svg version="1.0" xmlns="http://www.w3.org/2000/svg"
 width="928.000000pt" height="928.000000pt" viewBox="0 0 928.000000 928.000000"
 preserveAspectRatio="xMidYMid meet">
<metadata>
Created by potrace 1.11, written by Peter Selinger 2001-2013
</metadata>
<g transform="translate(0.000000,928.000000) scale(0.100000,-0.100000)"
fill="#000000" stroke="none">
<path d="M4438 7325 c-2 -2 -38 -6 -80 -10 -42 -3 -85 -7 -95 -9 -10 -2 -45
-7 -78 -12 -33 -4 -62 -8 -65 -9 -3 0 -27 -4 -55 -9 -27 -4 -108 -21 -180 -37
-71 -17 -137 -32 -145 -34 -44 -9 -191 -55 -209 -64 -12 -7 -21 -9 -21 -7 0 6
-179 -55 -235 -79 -16 -7 -52 -21 -80 -31 -27 -10 -61 -25 -75 -33 -13 -9 -27
-15 -30 -15 -6 2 -30 -7 -95 -37 -27 -12 -52 -23 -55 -23 -20 -5 -452 -226
-475 -243 -6 -5 -30 -19 -55 -32 -25 -13 -87 -51 -139 -83 -51 -32 -95 -58
-97 -58 -4 0 -286 -187 -364 -241 -80 -56 -255 -183 -260 -189 -3 -4 -32 -26
-65 -50 -33 -24 -65 -49 -71 -54 -6 -6 -28 -24 -50 -41 -21 -16 -56 -45 -78
-63 -23 -18 -48 -39 -56 -45 -24 -19 -204 -171 -210 -177 -3 -3 -25 -23 -50
-44 -140 -122 -336 -305 -504 -472 -61 -60 -277 -291 -332 -354 -22 -24 -58
-63 -82 -87 l-43 -43 53 -53 c29 -30 76 -80 103 -112 150 -176 459 -485 749
-749 16 -14 52 -45 79 -69 28 -23 58 -49 66 -58 9 -8 43 -37 76 -65 33 -27 65
-54 71 -60 16 -14 77 -64 150 -121 34 -26 77 -60 95 -75 61 -47 187 -143 209
-158 12 -8 56 -40 99 -70 123 -90 349 -240 360 -240 5 0 11 -3 13 -7 3 -9 85
-60 158 -101 25 -13 52 -31 61 -38 8 -8 20 -14 26 -14 6 0 22 -9 37 -21 14
-11 26 -17 26 -13 0 4 8 0 18 -8 9 -9 67 -41 127 -73 61 -32 119 -62 130 -68
11 -6 26 -12 33 -13 8 -1 21 -9 30 -16 10 -8 46 -27 82 -43 36 -15 94 -41 130
-58 60 -27 303 -125 325 -131 6 -2 17 -6 25 -9 15 -7 195 -67 215 -71 6 -2 17
-6 25 -9 19 -7 159 -44 191 -51 13 -2 31 -7 39 -10 8 -3 26 -7 40 -10 14 -2
57 -11 95 -19 117 -25 178 -36 230 -42 48 -6 99 -12 175 -22 72 -9 508 -11
590 -2 136 14 174 18 195 23 11 2 41 7 67 10 26 4 69 11 95 17 26 5 64 12 83
15 90 14 475 122 560 157 14 5 30 11 37 13 6 1 42 14 79 29 38 15 73 28 79 30
5 1 32 12 58 23 27 12 50 22 53 22 4 0 47 19 189 85 44 21 94 44 110 51 55 25
280 146 285 152 3 4 12 8 20 10 8 2 23 11 33 19 9 9 17 12 17 7 0 -5 4 -4 8 1
10 14 41 33 75 46 15 6 27 15 27 20 0 5 5 9 10 9 31 0 663 425 770 518 8 7 42
34 75 60 33 26 62 50 63 55 2 4 8 7 13 7 6 0 20 10 33 23 12 12 35 31 50 42
15 11 38 29 50 40 12 11 45 38 71 60 27 22 56 47 65 55 9 8 47 42 85 75 198
170 508 471 670 649 44 49 85 94 91 100 6 6 40 48 76 92 36 45 84 100 107 123
l41 41 -43 43 c-23 23 -56 60 -72 82 -17 21 -37 47 -45 55 -8 9 -40 45 -70 81
-59 69 -453 466 -560 564 -36 33 -99 89 -140 125 -41 36 -81 72 -90 80 -9 8
-38 33 -64 55 -27 22 -54 45 -60 50 -6 6 -36 30 -66 55 -30 25 -58 49 -62 55
-4 5 -8 7 -8 3 0 -3 -16 9 -35 28 -20 19 -39 34 -43 34 -4 0 -20 12 -37 28
-16 15 -57 47 -90 71 -33 25 -62 47 -65 50 -3 3 -25 20 -50 36 -25 16 -47 33
-50 36 -6 7 -103 76 -180 127 -30 20 -57 39 -60 42 -8 8 -134 90 -230 150 -47
29 -109 68 -137 86 -29 19 -54 34 -56 34 -2 0 -58 31 -124 69 -148 84 -587
301 -609 301 -6 0 -18 5 -110 46 -20 9 -48 20 -63 24 -14 5 -78 27 -141 50
-63 23 -140 48 -170 57 -30 8 -77 22 -105 30 -27 8 -57 16 -65 18 -8 2 -51 12
-95 23 -44 11 -93 23 -110 25 -16 3 -37 8 -45 11 -8 3 -33 7 -55 10 -22 3 -49
7 -61 10 -12 2 -45 7 -75 11 -30 3 -67 9 -84 11 -16 3 -52 8 -80 11 -56 6
-532 13 -537 8z m367 -1109 c48 -5 85 -10 158 -21 17 -3 66 -14 107 -25 41
-11 80 -22 87 -23 7 -2 16 -6 19 -10 4 -4 18 -7 31 -7 12 0 23 -4 23 -10 0 -5
8 -10 19 -10 22 0 254 -117 259 -131 2 -5 8 -7 13 -3 5 3 9 1 9 -5 0 -5 8 -12
18 -15 10 -4 27 -14 38 -24 10 -9 44 -36 74 -59 66 -50 183 -168 242 -243 23
-30 48 -61 55 -68 7 -7 13 -18 13 -23 0 -5 9 -19 19 -31 30 -31 136 -251 170
-350 16 -49 28 -88 26 -88 -2 0 2 -17 9 -38 8 -21 17 -61 21 -88 4 -27 9 -60
11 -74 20 -127 20 -295 0 -465 -6 -54 -36 -186 -47 -206 -4 -9 -10 -27 -13
-40 -5 -28 -30 -98 -44 -125 -5 -11 -22 -47 -38 -81 -15 -35 -31 -63 -36 -63
-4 0 -8 -7 -8 -15 0 -16 -53 -101 -120 -190 -59 -78 -285 -305 -305 -305 -2 0
-28 -18 -57 -40 -29 -22 -59 -40 -65 -40 -7 0 -13 -3 -13 -8 0 -8 -127 -74
-221 -115 -119 -52 -318 -101 -454 -112 -129 -10 -306 -6 -381 9 -12 2 -39 7
-60 10 -110 18 -277 73 -394 129 -94 45 -183 97 -188 109 -2 4 -8 8 -14 8 -9
0 -116 79 -149 110 -8 8 -38 36 -65 61 -62 59 -84 84 -162 189 -34 47 -66 90
-70 95 -34 45 -147 282 -156 328 -2 12 -11 41 -19 64 -16 43 -18 49 -41 173
-15 78 -29 230 -28 290 4 138 20 271 47 385 20 84 27 110 33 119 3 6 7 16 8
21 8 47 120 282 150 316 8 8 14 21 14 27 0 7 5 12 10 12 6 0 10 7 10 15 0 8 4
15 8 15 5 0 13 8 18 19 44 91 315 346 444 417 19 10 37 22 40 25 7 8 189 95
230 109 19 7 44 16 55 21 21 9 206 53 265 63 19 3 76 9 125 12 50 3 91 7 92 8
3 2 128 -3 178 -8z"/>
</g>
</svg>
